<svg xmlns="http://www.w3.org/2000/svg" width="398" height="212.999" viewBox="0 0 398 212.999">
  <path id="logo-1" d="M-1623-2156h-348a24.836,24.836,0,0,0-1.965-9.731,24.912,24.912,0,0,0-5.358-7.946,24.917,24.917,0,0,0-7.946-5.358A24.839,24.839,0,0,0-1996-2181v-163h.009a24.816,24.816,0,0,0,9.723-1.964,24.9,24.9,0,0,0,7.946-5.357,24.913,24.913,0,0,0,5.358-7.947A24.828,24.828,0,0,0-1971-2369h348a24.831,24.831,0,0,0,1.965,9.731,24.911,24.911,0,0,0,5.358,7.947,24.891,24.891,0,0,0,7.947,5.357A24.832,24.832,0,0,0-1598-2344v163h-.008a24.815,24.815,0,0,0-9.723,1.964,24.914,24.914,0,0,0-7.947,5.358,24.906,24.906,0,0,0-5.358,7.946A24.842,24.842,0,0,0-1623-2156Zm-213.029-39.41h0l-1.4,5.251a9.518,9.518,0,0,0,2.486.98,14.4,14.4,0,0,0,3.675.42,15.745,15.745,0,0,0,6.37-1.261,13.567,13.567,0,0,0,5.25-4.409,33.916,33.916,0,0,0,4.41-8.75l13.37-36.541-5.81-2.24-10.57,30.03-13.58-30.311-5.6,2.521,14.21,31.99h3.361l-1.61,4.2c-1.394,3.67-2.878,6.167-4.41,7.419a8.1,8.1,0,0,1-5.251,1.891,10.515,10.515,0,0,1-2.8-.35,8.931,8.931,0,0,1-2.1-.841Zm51.59-46.831a18.682,18.682,0,0,0-9.239,2.311,16.728,16.728,0,0,0-6.511,6.58,20.624,20.624,0,0,0-2.38,10.15,20.471,20.471,0,0,0,2.344,9.9,17.166,17.166,0,0,0,6.476,6.72,18.176,18.176,0,0,0,9.31,2.416,18.2,18.2,0,0,0,9.275-2.381,17.242,17.242,0,0,0,6.475-6.685,20.675,20.675,0,0,0,2.38-10.115,20.035,20.035,0,0,0-2.416-10.045,17.108,17.108,0,0,0-6.51-6.545A18.487,18.487,0,0,0-1784.44-2242.241Zm41.02,5.531a6.184,6.184,0,0,1,5.145,2.381,10.011,10.011,0,0,1,1.855,6.3V-2205h6.3v-23.729c0-4.041-1.025-7.338-3.046-9.8a9.448,9.448,0,0,0-3.823-2.784,14.4,14.4,0,0,0-5.381-.928,12.973,12.973,0,0,0-7.245,2,17.454,17.454,0,0,0-5,4.934v-6.089h-6.09v36.4h6.3v-24.08a22.92,22.92,0,0,1,4.9-5.356A9.691,9.691,0,0,1-1743.42-2236.711ZM-1862.7-2254v49h29.12v-5.95h-22.469V-2254Zm199.464-72.1v37.5a13.6,13.6,0,0,0,1.4,6.565,8.444,8.444,0,0,0,3.8,3.673,12.531,12.531,0,0,0,5.4,1.137,17.29,17.29,0,0,0,3.8-.391,15.809,15.809,0,0,0,2.893-.91l-1.43-4.745a11.371,11.371,0,0,1-2.048.682,10.311,10.311,0,0,1-2.438.292,5.113,5.113,0,0,1-4.063-1.689,7.838,7.838,0,0,1-1.463-5.2v-36.92Zm-36.66,14.3v21.97a14.553,14.553,0,0,0,1.625,7.377,9.766,9.766,0,0,0,4.225,4,12.8,12.8,0,0,0,5.525,1.235,14.511,14.511,0,0,0,6.435-1.463,18.862,18.862,0,0,0,5.265-3.8,6.233,6.233,0,0,0,2.584,3.608,8.954,8.954,0,0,0,4.892,1.2l1.235-4.55a4.385,4.385,0,0,1-2.633-.878c-.8-.581-1.2-1.817-1.2-3.672V-2311.8h-5.85v25.413a15.325,15.325,0,0,1-4.453,2.893,13.025,13.025,0,0,1-5.167,1.074,5.976,5.976,0,0,1-4.94-2.112,9.577,9.577,0,0,1-1.69-6.079V-2311.8Zm-64.415-.78a14.08,14.08,0,0,0-7.995,2.308,15.516,15.516,0,0,0-5.363,6.3,20.8,20.8,0,0,0-1.917,9.068,24.084,24.084,0,0,0,1.064,7.451,15.139,15.139,0,0,0,3.193,5.582,13.693,13.693,0,0,0,5.013,3.485,17.415,17.415,0,0,0,6.525,1.162,29.054,29.054,0,0,0,6.565-.683,29.516,29.516,0,0,0,5.265-1.722l-1.365-5.006a28.272,28.272,0,0,1-4.485,1.593,20.807,20.807,0,0,1-5.265.617,9.932,9.932,0,0,1-7.215-2.665,12.1,12.1,0,0,1-3.315-7.41h23.66c.129-1.427.2-2.914.2-4.421a18.869,18.869,0,0,0-1.625-7.865,13.241,13.241,0,0,0-4.842-5.687A14.516,14.516,0,0,0-1764.31-2312.58Zm-36.855,0a13.059,13.059,0,0,0-7.508,2.339,16.8,16.8,0,0,0-5.459,6.371,20.035,20.035,0,0,0-2.048,9.165,20.168,20.168,0,0,0,2.014,9.263,15.116,15.116,0,0,0,5.46,6.076,14.161,14.161,0,0,0,7.6,2.146,11.582,11.582,0,0,0,6.467-1.69,14.855,14.855,0,0,0,4-3.706,6.237,6.237,0,0,0,2.568,3.706,8.987,8.987,0,0,0,4.973,1.235l1.235-4.55a4.915,4.915,0,0,1-2.632-.748c-.8-.5-1.2-1.579-1.2-3.219V-2326.1h-5.85v17.679a16.249,16.249,0,0,0-3.8-2.793A11.773,11.773,0,0,0-1801.165-2312.58Zm-70.655,0a17.357,17.357,0,0,0-8.58,2.144,15.545,15.545,0,0,0-6.045,6.111,19.146,19.146,0,0,0-2.209,9.425,19,19,0,0,0,2.177,9.2,15.935,15.935,0,0,0,6.013,6.24,16.883,16.883,0,0,0,8.645,2.243,16.9,16.9,0,0,0,8.613-2.21,16.02,16.02,0,0,0,6.012-6.208,19.2,19.2,0,0,0,2.21-9.393,18.607,18.607,0,0,0-2.243-9.327,15.9,15.9,0,0,0-6.044-6.079A17.177,17.177,0,0,0-1871.82-2312.58Zm147.68,2.015v5.07h5.2V-2278h5.85v-27.495h10.01v-5.07h-10.01v-4.355a7.024,7.024,0,0,1,1.658-5.038,5.831,5.831,0,0,1,4.387-1.722,9.767,9.767,0,0,1,3.444.585,26.02,26.02,0,0,1,2.925,1.3l1.755-4.94a24.9,24.9,0,0,0-3.835-1.527,16.083,16.083,0,0,0-4.68-.618,11.063,11.063,0,0,0-8.32,3.316c-2.113,2.2-3.185,5.24-3.185,9.035v3.965Zm-20.41-1.235v33.8h5.85v-15.8a16.649,16.649,0,0,1,1.4-7.279,10.015,10.015,0,0,1,3.575-4.224,8.533,8.533,0,0,1,4.583-1.366,7.547,7.547,0,0,1,2.925.52l1.755-6.045a8.783,8.783,0,0,0-1.625-.293,19.507,19.507,0,0,0-1.95-.1,10.574,10.574,0,0,0-5,1.138,10.949,10.949,0,0,0-3.575,2.99,16.33,16.33,0,0,0-2.275,4v-7.345Zm-89.179,4.354a5.743,5.743,0,0,1,4.777,2.209,9.3,9.3,0,0,1,1.723,5.851V-2278h5.85v-22.036a13.955,13.955,0,0,0-2.828-9.1c-1.876-2.285-4.752-3.444-8.547-3.444a12.057,12.057,0,0,0-6.727,1.852,16.233,16.233,0,0,0-4.648,4.583v-5.655h-5.655v33.8h5.85v-22.36a21.246,21.246,0,0,1,4.55-4.973A9,9,0,0,1-1833.729-2307.445Zm-83.525-4.745v0l9.619,34.187h7.67l12.285-44-5.719-1.756-10.205,39.2-9.62-34.19h-7.736l-9.685,34.19-10.27-39.39-6.11,1.95,12.35,44H-1927l9.749-34.187Zm132.815,102.43a10.169,10.169,0,0,1-5.985-1.855,13.078,13.078,0,0,1-4.165-4.97,15.112,15.112,0,0,1-1.54-6.755c0-3.995,1.036-7.245,3.081-9.66a10.709,10.709,0,0,1,8.609-3.64,10.165,10.165,0,0,1,5.985,1.854,13.207,13.207,0,0,1,4.165,4.9,14.661,14.661,0,0,1,1.54,6.685,14.833,14.833,0,0,1-3.08,9.695,9.829,9.829,0,0,1-3.693,2.809A12.276,12.276,0,0,1-1784.44-2209.76Zm-15.359-72.66a9.208,9.208,0,0,1-5.3-1.625,11.176,11.176,0,0,1-3.737-4.454,14.6,14.6,0,0,1-1.365-6.4,15.575,15.575,0,0,1,1.267-6.4,11.049,11.049,0,0,1,3.608-4.517,9.122,9.122,0,0,1,5.459-1.689,9.3,9.3,0,0,1,4.875,1.333,12.713,12.713,0,0,1,3.445,2.893v16.77a11.774,11.774,0,0,1-3.673,2.958A9.806,9.806,0,0,1-1799.8-2282.42Zm-72.021,0a9.435,9.435,0,0,1-5.557-1.722,12.136,12.136,0,0,1-3.867-4.615,14.023,14.023,0,0,1-1.43-6.273,13.479,13.479,0,0,1,2.86-8.969,9.945,9.945,0,0,1,7.995-3.38,9.431,9.431,0,0,1,5.557,1.723,12.264,12.264,0,0,1,3.868,4.549,13.629,13.629,0,0,1,1.429,6.208,13.773,13.773,0,0,1-2.859,9A9.818,9.818,0,0,1-1871.82-2282.42Zm116.675-14.82h-18.525c.345-3.323,1.351-5.893,2.99-7.637a8.226,8.226,0,0,1,6.24-2.633,8.886,8.886,0,0,1,6.826,2.665c1.638,1.768,2.469,4.327,2.47,7.6Z" transform="translate(1996 2369)" fill="#000"/>
</svg>
